<?xml version="1.0" encoding="utf-8"?>
<!-- Generator: Adobe Illustrator 24.2.0, SVG Export Plug-In . SVG Version: 6.00 Build 0)  -->
<svg version="1.1" id="Layer_1" xmlns="http://www.w3.org/2000/svg" xmlns:xlink="http://www.w3.org/1999/xlink" x="0px" y="0px"
	 viewBox="0 0 124.5 125" style="enable-background:new 0 0 124.5 125;" xml:space="preserve">
<style type="text/css">
	.st0{fill:#FFFFFF;stroke:#FFFFFF;stroke-width:3;stroke-miterlimit:10;}
</style>
<circle class="st0" cx="63.4" cy="65.1" r="49.8"/>
<path d="M64.5,96.4c-8.6,0-12.9-4.3-17.9-9.3l-0.9-0.9c-5.3-5.3-8.9-9.4-9-9.4c-2.2-2.2-2.2-5.9,0.1-8.2c1.1-1.1,2.5-1.7,4.1-1.7
	c1.5,0,3,0.6,4.1,1.7l4.1,4.2l-0.6-29.8c0-3,2.1-5.3,5-5.3c1.8,0,3.2,0.9,4.1,2.3l0-1.6c0-2.7,2.1-4.9,4.8-4.9
	c2.7,0,4.7,2.2,4.7,4.9v1.8c0.7-1.1,2.4-1.8,3.9-1.8c2.7,0,5,2.2,5,4.9l-0.2,5.5c0.8-0.8,1.8-1.2,3-1.2c2.3,0,4.2,1.9,4.2,4.2
	c0,0,0,0.1,0,0.1c0,0-0.7,8.8-1.4,18c-0.1,1.1-0.2,2.2-0.2,3.2c-0.5,7.1-0.8,10.3-2.7,14.2C76.4,91.9,73.4,96.4,64.5,96.4z M40.9,69
	c-1,0-1.9,0.4-2.6,1.1c-0.7,0.7-1.1,1.6-1.1,2.6c0,1,0.4,1.9,1.1,2.6c0.1,0.1,3.7,4.2,8.9,9.4l0.9,0.9c4.8,4.9,8.7,8.7,16.4,8.7
	c7.7,0,10.2-3.6,12.3-7.9c1.8-3.5,2-6.6,2.5-13.4c0.1-1,0.1-2,0.2-3.2c0.7-8.8,1.4-17.3,1.4-18c0-1.2-1-2.1-2.1-2.1
	c-1.2,0-2.1,1-2.1,2.1c0,0,0,0.1,0,0.1l-1.4,14.5c-0.1,0.6-0.6,1-1.1,1c-0.6,0-1-0.5-1-1.1l0.7-23c0-1.5-1.3-2.8-2.8-2.8
	c-1.6,0-3,1.3-3,2.8l-0.9,17.6c0,0.6-0.5,1.2-1.1,1.2c-0.6,0-1.1-0.8-1.1-1.4V38.4c0-1.6-1.1-2.8-2.6-2.8c-1.5,0-2.7,1.2-2.7,2.8
	L59,63c0,0.6-0.6,1.2-1,1.2s-1-0.6-1.1-1.2l-0.7-19.9c0-1.9-1.2-3.3-2.8-3.3s-2.8,1.3-2.8,3.2l0.7,32.5c0,0.4-0.3,0.8-0.7,1
	c-0.4,0.2-0.9,0.1-1.2-0.2l-5.9-6.2C42.8,69.4,41.9,69,40.9,69z"/>
</svg>
